<svg xmlns="http://www.w3.org/2000/svg" width="696" height="468" fill="none"><path fill="#00684A" d="M512 62.3a57.256 57.256 0 0 0 57.24 57.24 57.259 57.259 0 0 1 57.25 57.24v171.73a114.5 114.5 0 0 1-229 0A114.53 114.53 0 0 0 283.05 234a114.5 114.5 0 1 1 0-229h171.73A57.27 57.27 0 0 1 512 62.3Z"/><path fill="#000" stroke="#000" stroke-miterlimit="10" d="M229.33 96.67a59.998 59.998 0 0 0-50.3-42.557A60 60 0 0 0 120 83.38a45.866 45.866 0 0 0-5.27-.32 45.2 45.2 0 1 0 0 90.4h114.4a38.4 38.4 0 0 0 .24-76.79h-.04Z"/><path fill="#fff" stroke="#000" stroke-miterlimit="10" d="M229.33 84.59a59.997 59.997 0 0 0-50.3-42.557A60 60 0 0 0 120 71.3a45.91 45.91 0 0 0-5.27-.32 45.2 45.2 0 1 0 0 90.4h114.4a38.4 38.4 0 0 0 .24-76.79h-.04Z"/><path fill="#000" stroke="#000" stroke-miterlimit="10" d="m316.11 244.9-86.49 41.72v64.5l86.49 41.72 86.49-41.72v-64.5l-86.49-41.72Z"/><path fill="#00ED64" d="m316.11 232.82-86.49 41.72v64.5l86.49 41.72 86.49-41.72v-64.5l-86.49-41.72Z"/><path fill="#fff" d="m402.6 274.54-86.49 41.72-86.49-41.72 86.49-41.72 86.49 41.72Z"/><path stroke="#000" stroke-miterlimit="10" d="m316.11 232.82-86.49 41.72v64.5l86.49 41.72 86.49-41.72v-64.5l-86.49-41.72Z"/><path stroke="#000" stroke-miterlimit="10" d="m229.62 274.54 86.49 41.72v64.5M316.11 316.26l86.49-41.72"/><path stroke="#000" stroke-miterlimit="10" d="m229.62 306.79 86.49 41.72 86.49-41.72"/><path fill="#000" stroke="#000" stroke-miterlimit="10" d="m383.46 348.27 19.14-9.23v-64.5l-19.14 9.23v64.5Z"/><path fill="#00ED64" d="m316.11 168.33-86.49 41.72v64.49l86.49 41.72 86.49-41.72v-64.49l-86.49-41.72Z"/><path fill="#fff" d="m402.6 210.05-86.49 41.72-86.49-41.72 86.49-41.72 86.49 41.72Z"/><path stroke="#000" stroke-miterlimit="10" d="m316.11 168.33-86.49 41.72v64.49l86.49 41.72 86.49-41.72v-64.49l-86.49-41.72Z"/><path stroke="#000" stroke-miterlimit="10" d="m229.62 210.05 86.49 41.72v64.49M316.11 251.77l86.49-41.72"/><path stroke="#000" stroke-miterlimit="10" d="m229.62 242.3 86.49 41.7 86.49-41.7"/><path fill="#000" stroke="#000" stroke-miterlimit="10" d="m383.46 283.77 19.14-9.23v-64.49l-19.14 9.23v64.49Z"/><path fill="#00ED64" d="m316.11 103.83-86.49 41.73v64.49l86.49 41.72 86.49-41.72v-64.49l-86.49-41.73Z"/><path fill="#fff" d="m402.6 145.56-86.49 41.72-86.49-41.72 86.49-41.73 86.49 41.73Z"/><path stroke="#000" stroke-miterlimit="10" d="m316.11 103.83-86.49 41.73v64.49l86.49 41.72 86.49-41.72v-64.49l-86.49-41.73Z"/><path stroke="#000" stroke-miterlimit="10" d="m229.62 145.56 86.49 41.72v64.49M316.11 187.27l86.49-41.72"/><path stroke="#000" stroke-miterlimit="10" d="m229.62 177.8 86.49 41.72 86.49-41.72"/><path fill="#000" stroke="#000" stroke-miterlimit="10" d="m383.46 219.28 19.14-9.23v-64.49l-19.14 9.23v64.49Z"/><path fill="#00ED64" d="m316.11 39.34-86.49 41.72v64.49l86.49 41.73 86.49-41.73V81.06l-86.49-41.72Z"/><path fill="#fff" d="m402.6 81.06-86.49 41.72-86.49-41.72 86.49-41.72 86.49 41.72Z"/><path stroke="#000" stroke-miterlimit="10" d="m316.11 39.34-86.49 41.72v64.49l86.49 41.73 86.49-41.73V81.06l-86.49-41.72Z"/><path stroke="#000" stroke-miterlimit="10" d="m229.62 81.06 86.49 41.72v64.5M316.11 122.78l86.49-41.72"/><path stroke="#000" stroke-miterlimit="10" d="M229.62 113.31 316.11 155l86.49-41.72"/><path fill="#000" stroke="#000" stroke-miterlimit="10" d="m383.46 154.79 19.14-9.24V81.06l-19.14 9.23v64.5ZM445.84 309.04l-86.49 41.72v64.49l86.49 41.72 86.49-41.72v-64.49l-86.49-41.72Z"/><path fill="#00ED64" d="m445.84 296.96-86.49 41.72v64.49l86.49 41.72 86.49-41.72v-64.49l-86.49-41.72Z"/><path fill="#fff" d="m532.33 338.68-86.49 41.72-86.49-41.72 86.49-41.72 86.49 41.72Z"/><path stroke="#000" stroke-miterlimit="10" d="m445.84 344.72-86.49-6.04v64.49l86.49 41.72 86.49-41.72v-64.49l-86.49 6.04ZM445.84 380.4v64.49"/><path stroke="#000" stroke-miterlimit="10" d="m359.35 370.92 86.49 41.72 86.49-41.72"/><path fill="#000" stroke="#000" stroke-miterlimit="10" d="m513.19 412.4 19.14-9.23v-64.49l-19.14 9.23v64.49Z"/><path fill="#E9FF99" d="m532.33 338.68-86.49 41.72-86.49-41.72 86.49-41.72 86.49 41.72Z"/><path fill="#000" stroke="#000" stroke-linejoin="round" d="m255.27 54.67-10.15-10.35L250 28.7l10.29 9.9-5.02 16.07Z"/><path fill="#fff" stroke="#000" stroke-linejoin="round" d="m255.3 54.68 14.23-2.74 4.88-15.61-14.09 2.28-5.02 16.07ZM264.04 26.59 250 28.7l10.32 9.91 14.09-2.28-10.37-9.74Z"/><path stroke="#000" stroke-dasharray="2 2" stroke-miterlimit="10" d="m445.84 232.46-86.49 41.72v64.5l86.49 41.72 86.49-41.72v-64.5l-86.49-41.72Z"/><path stroke="#000" stroke-dasharray="2 2" stroke-miterlimit="10" d="m359.35 274.18 86.49 41.72v64.5M445.84 315.9l86.49-41.72"/><path fill="#00C954" stroke="#000" stroke-linejoin="round" d="m389.91 158.08 17.41-8.4 1.92 8.97-17.41 8.4-1.92-8.97Z"/><path fill="#00ED64" stroke="#000" stroke-linejoin="round" d="m389.91 158.08 1.82 1.95v6.72l-1.81-1.96-.01-6.71Z"/><path fill="#00A564" stroke="#000" stroke-linejoin="round" d="m501.77 158.08-17.41-8.4-1.92 8.97 17.41 8.4 1.92-8.97Z"/><path fill="#00ED64" stroke="#000" stroke-linejoin="round" d="m501.77 158.08-1.82 1.95v6.72l1.82-1.96v-6.71Z"/><path fill="#00ED64" d="m445.84 137.6-86.49 41.72v64.49l86.49 41.72 86.49-41.72v-64.49l-86.49-41.72Z"/><path fill="#fff" d="m532.33 179.32-86.49 41.72-86.49-41.72 86.49-41.72 86.49 41.72Z"/><path stroke="#000" stroke-miterlimit="10" d="m445.84 137.6-86.49 41.72v64.49l86.49 41.72 86.49-41.72v-64.49l-86.49-41.72Z"/><path stroke="#000" stroke-miterlimit="10" d="m359.35 179.32 86.49 41.72v64.49M445.84 221.04l86.49-41.72"/><path stroke="#000" stroke-miterlimit="10" d="m359.35 211.57 86.49 41.72 86.49-41.72"/><path fill="#000" stroke="#000" stroke-miterlimit="10" d="m513.19 253.04 19.14-9.23v-64.49l-19.14 9.23v64.49Z"/><path fill="#B1FF05" stroke="#000" stroke-linejoin="round" d="m389.91 158.08 17.41-8.4 37.25-3.29-17.41 8.4-37.25 3.29Z"/><path fill="#00ED64" stroke="#000" stroke-linejoin="round" d="m389.91 158.08 1.82 1.95 37.24-3.29-1.81-1.95-37.25 3.29Z"/><path fill="#B1FF05" stroke="#000" stroke-linejoin="round" d="m501.77 158.08-17.41-8.4-37.24-3.29 17.4 8.4 37.25 3.29Z"/><path fill="#00ED64" stroke="#000" stroke-linejoin="round" d="m501.77 158.08-1.82 1.95-37.24-3.29 1.81-1.95 37.25 3.29Z"/><path fill="#000" stroke="#000" stroke-miterlimit="10" d="m186.37 309.04-86.49 41.72v64.49l86.49 41.72 86.49-41.72v-64.49l-86.49-41.72Z"/><path fill="#00ED64" d="m186.37 296.96-86.49 41.72v64.49l86.49 41.72 86.49-41.72v-64.49l-86.49-41.72Z"/><path fill="#fff" stroke="#000" stroke-linecap="round" stroke-linejoin="round" d="m272.86 338.68-86.49 41.72-86.49-41.72 86.49-41.72 86.49 41.72Z"/><path stroke="#000" stroke-linecap="round" stroke-linejoin="round" d="m186.37 296.96-86.49 41.72v64.49l86.49 41.72 86.49-41.72v-64.49l-86.49-41.72Z"/><path stroke="#000" stroke-linecap="round" stroke-linejoin="round" d="m99.88 338.68 86.49 41.72v64.49M186.37 380.4l86.49-41.72"/><path stroke="#000" stroke-linecap="round" stroke-linejoin="round" d="m99.88 370.92 86.49 41.72 86.49-41.72"/><path fill="#000" stroke="#000" stroke-linecap="round" stroke-linejoin="round" d="m253.72 412.4 19.14-9.23v-64.49l-19.14 9.23v64.49Z"/><path fill="#00ED64" stroke="#000" stroke-linecap="round" stroke-linejoin="round" d="m186.37 232.46-86.49 41.72v64.5l86.49 41.72 86.49-41.72v-64.5l-86.49-41.72Z"/><path fill="#fff" stroke="#000" stroke-linecap="round" stroke-linejoin="round" d="m272.86 274.18-86.49 41.72-86.49-41.72 86.49-41.72 86.49 41.72Z"/><path stroke="#000" stroke-linecap="round" stroke-linejoin="round" d="m186.37 232.46-86.49 41.72v64.5l86.49 41.72 86.49-41.72v-64.5l-86.49-41.72Z"/><path stroke="#000" stroke-linecap="round" stroke-linejoin="round" d="m99.88 274.18 86.49 41.72v64.5M186.37 315.9l86.49-41.72"/><path stroke="#000" stroke-linecap="round" stroke-linejoin="round" d="m99.88 306.43 86.49 41.72 86.49-41.72"/><path fill="#000" stroke="#000" stroke-linecap="round" stroke-linejoin="round" d="m253.72 347.91 19.14-9.23v-64.5l-19.14 9.23v64.5Z"/><path fill="#00ED64" d="m186.37 167.97-86.49 41.72v64.49l86.49 41.72 86.49-41.72v-64.49l-86.49-41.72Z"/><path fill="#fff" d="m272.86 209.69-86.49 41.72-86.49-41.72 86.49-41.72 86.49 41.72Z"/><path stroke="#000" stroke-linecap="round" stroke-linejoin="round" d="m186.37 167.97-86.49 41.72v64.49l86.49 41.72 86.49-41.72v-64.49l-86.49-41.72Z"/><path stroke="#000" stroke-linecap="round" stroke-linejoin="round" d="m99.88 209.69 86.49 41.72v64.49M186.37 251.41l86.49-41.72"/><path stroke="#000" stroke-linecap="round" stroke-linejoin="round" d="m99.88 241.94 86.49 41.72 86.49-41.72"/><path fill="#000" stroke="#000" stroke-linecap="round" stroke-linejoin="round" d="m253.72 283.41 19.14-9.23v-64.49l-19.14 9.23v64.49Z"/><path stroke="#000" stroke-miterlimit="10" d="M217.54 161.18v10.26M217.54 114.69v41M544.41 206.68v34.42M544.41 184.35v16.84M87.8 270.63v-22.34M87.8 305.04v-28.92"/><path fill="#B1FF05" stroke="#000" stroke-linejoin="round" d="m451.12 156.69-17.41-8.4-52.23 46.38 17.41 8.4 52.23-46.38Z"/><path fill="#00ED64" stroke="#000" stroke-linejoin="round" d="m451.12 156.69 2.19.94-52.23 46.38-2.19-.94 52.23-46.38ZM401.45 222.58h2.08l-2.45-18.57-2.19-.94 2.56 19.51Z"/><path fill="#B1FF05" stroke="#000" stroke-linejoin="round" d="m401.45 222.58-17.4-8.39-2.57-19.52 17.41 8.4 2.56 19.51ZM440.56 156.69l17.41-8.4 52.23 46.38-17.41 8.4-52.23-46.38Z"/><path fill="#00ED64" stroke="#000" stroke-linejoin="round" d="m440.56 156.69-2.19.94 52.23 46.38 2.19-.94-52.23-46.38ZM490.23 222.58h-2.08l2.45-18.57 2.19-.94-2.56 19.51Z"/><path fill="#B1FF05" stroke="#000" stroke-linejoin="round" d="m490.23 222.58 17.41-8.39 2.56-19.52-17.41 8.4-2.56 19.51Z"/><path fill="#000" d="m403.53 222.58 2.47-20.74 45.12-32.89-5.28-5.05-44.76 40.11 2.45 18.57ZM479.24 158.2l35.81 29.46-7.41 26.53 2.56-19.52-42.18-37.46 11.22.99ZM398.11 160.62l3.1-1.43 22.45-1.98-3.84 3.41h-21.71Z"/><path fill="#000" d="m474.95 157.82 15.69 1.39 8.51 4.21-16.71 1.24-7.49-6.84Z"/><path fill="#000" stroke="#000" stroke-miterlimit="10" d="M303.41 336.06H303a42.995 42.995 0 0 0-37.046-22.146 42.998 42.998 0 0 0-37.894 64.332 42.993 42.993 0 0 0 37.33 21.664h38a31.93 31.93 0 0 0 0-63.86l.02.01Z"/><path fill="#fff" stroke="#000" stroke-miterlimit="10" d="M303.41 324H303a42.995 42.995 0 0 0-37.046-22.146 42.998 42.998 0 0 0-37.894 64.332 43 43 0 0 0 37.33 21.664h38a31.93 31.93 0 0 0 0-63.86l.02.01Z"/><path stroke="#000" stroke-miterlimit="10" d="m416.3 352.93 59.08-28.5M475.38 352.93l-59.08-28.5"/><path stroke="#000" stroke-dasharray="2 2" stroke-miterlimit="10" d="m359.35 338.68 86.49-41.72v-64.5M445.84 296.96l86.49 41.72"/><path fill="#B1FF05" stroke="#000" stroke-miterlimit="10" d="M426.8 115.49v40.67c0 4.27 8.52 7.73 19 7.73s19-3.46 19-7.73v-40.67h-38Z"/><path fill="#00ED64" stroke="#000" stroke-linejoin="round" d="M445.84 123.22c10.515 0 19.04-3.461 19.04-7.73s-8.525-7.73-19.04-7.73c-10.516 0-19.04 3.461-19.04 7.73s8.524 7.73 19.04 7.73Z"/><path fill="#B1FF05" stroke="#000" stroke-miterlimit="10" d="M438.92 7.81v107.35c0 1.55 3.1 2.81 6.92 2.81s6.93-1.26 6.93-2.81V7.81h-13.85Z"/><path fill="#00ED64" stroke="#000" stroke-linejoin="round" d="M445.84 10.62c3.822 0 6.92-1.258 6.92-2.81S449.662 5 445.84 5s-6.92 1.258-6.92 2.81 3.098 2.81 6.92 2.81Z"/><path fill="#000" stroke="#000" stroke-miterlimit="10" d="m156.3 202.13-10.63-9.33-2.76 13.88-2.76 13.87 26.79-9.09-10.64-9.33Z"/><path fill="#fff" stroke="#000" stroke-miterlimit="10" d="M341.64 456.19c6.086 0 11.02-4.934 11.02-11.02 0-6.086-4.934-11.02-11.02-11.02-6.087 0-11.02 4.934-11.02 11.02 0 6.086 4.933 11.02 11.02 11.02Z"/><path fill="#000" d="M335 453.93s13.88-4.63 15.87-14.85c2.38 3.19 3.28 10.5-1.92 14.38-5.2 3.88-10.28 2.54-13.95.47Z"/><path stroke="#000" stroke-miterlimit="10" d="M341.67 417.18v10.26M341.67 391.31v20.38"/><path fill="#fff" stroke="#000" stroke-miterlimit="10" d="m129.36 184.78 10.64 9.34 10.63 9.32-13.39 4.55-13.4 4.55 2.76-13.88 2.76-13.88Z"/><path fill="#000" d="m134.46 199.82-10.62 12.72 26.79-9.1-16.17-3.62Z"/><path stroke="#000" stroke-miterlimit="10" d="m134.83 200.75-5.11-15.04"/><path fill="#000" stroke="#000" stroke-miterlimit="10" d="m273.73 63.23 10.15 10.35.02-.06.01.07 14.23-2.74 4.88-15.61-6.75-6.33L275 59.17l-1.27 4.06Z"/></svg>